<?xml version="1.0" encoding="UTF-8"?><svg id="Layer_1" xmlns="http://www.w3.org/2000/svg" viewBox="0 0 1202.37 516.77"><defs><style>.cls-1{fill:#2b479d;}</style></defs><path class="cls-1" d="M487.06,174.81c33.47-12.83,37.55,8.06,37.95,15.87v48.12c10.85-4.58,22.52-16.45,22.52-16.45l11.37-12.72v-88.3l15.7-10.7v83.64l11.36,11.22v-102.61l26.63-18.16c56.67,38.06,53.83,87.43,36.41,115.64l16.4,16.19c28.32-34.99,44.07-102.97-37.2-156.09l-.06-.09-.04.02s-.02-.02-.04-.02l-.1.11-42.01,28.64v-36.58h-11.36v44.32l-15.7,10.7v-37.78h-.02c0-.09.02-.17.02-.26,0-16.92-11.7-24.29-24.12-25.29-32.02-2.6-47.71,36.9-47.71,36.9,33.47-12.83,37.55,8.06,37.95,15.87v49.47c-27.97.96-37.95,28.33-37.95,28.33Z"/><path class="cls-1" d="M585.94,320.35l-10.64.17h-.69v65.78c-4.69-1.8-9.98-3.62-15.7-5.36v-60.42h-21.06c-7.42,0-9.47-.09-12.8-2.54v55.88c-24.21-2.62-50.37.31-71.25,16.93-45.63,36.27-27.57,74.12-20.9,84.92l23.96-16.47s-40.52-29.93.87-60.68c36.19-26.88,96.67,26.01,96.67,26.01l42.47-28.39s-4.05-2.18-10.93-5.21v-70.61Z"/><path class="cls-1" d="M689.89,389.11c-7.35-8.65-23.05-50.12-34.93-79.79l-11.65,11.41-20.44.13c9.89,29,18.98,59.32,27.98,74.76,6.85,11.76,17.1,23.08,30.59,24.88,18.47,2.46,28.88-3.97,39.78-15.76-8.16-2.09-21.21-3.71-31.34-15.63Z"/><path d="M206.47,329.15c-7.6-5.58-19.7-1.08-19.7-1.08l24.5-26.05v-53.95c0-4.03-3.72-8.54-9.45-8.54s-14.73,7.29-14.73,7.29v-35.51l11.94-13.02-11.01-.78-12.71,13.34v90.09l-11.63,12.72h16.75l11.94-12.87h-4.96v-46.36c9-9.92,11.47.31,11.47.31v56.44l-24.19,27.6c14.27-9.14,23.57-2.48,23.57-2.48,0,0,4.97,4.03,13.18,4.03s13.49-11.17,13.49-11.17c0,0-10.85,5.59-18.45,0ZM255.27,241.28s-2.56-2.56-4.77.47l-7.39,7.39s1.22-9.48-8.08-10.18c-9.31-.7-17.45,13.84-17.45,13.84,0,0,11.16-8.84,11.16.35v47.45l-11.16,12.2h18.26l12.91-12.79h-6.28v-44.88s3.14-5.81,6.28-2.79c3.14,3.03,4.65,4.65,4.65,4.65l9.77-9.19-7.91-6.51ZM290.51,300.24h-5.23v-47.68l12.56-12.55h-19.08l-12.68,13.02h5.82v47.11l-11.05,11.39,18.26-.12,11.39-11.16ZM291.79,216.62l-8.61-8.49-14.54,14.3,8.37,8.49,14.77-14.31ZM577.39,252.55l12.56-12.55h-19.07l-12.68,13.02h5.82v47.11l-11.05,11.39,18.26-.12,11.4-11.16h-5.24v-47.68ZM583.91,216.62l-8.61-8.49-14.53,14.3,8.37,8.49,14.77-14.31ZM658.18,240h-19.07l-12.68,13.02h5.82v47.11l-11.04,11.39,18.26-.12,11.39-11.16h-5.23v-47.68l12.56-12.55ZM637.37,230.93l14.77-14.31-8.61-8.49-14.53,14.3,8.37,8.49ZM539.37,305.11l-8.84-7.44v-44.35c0-3.26,3.72-1.55,3.72-1.55,13.02,12.24,20.15-2.02,20.15-2.02-9.61,4.2-16.12-9.92-16.12-9.92-9.77,10.55-21.24,10.08-21.24,10.08l-.15,49.45,14.11,11.01c3.56,2.67,6.98-.31,6.98-.31l14.73-13.34-1.7-1.71-11.63,10.08ZM677.99,251.78c13.03,12.24,20.16-2.02,20.16-2.02-9.61,4.2-16.13-9.92-16.13-9.92-9.77,10.55-21.25,10.08-21.25,10.08l-.15,49.45,14.11,11.01c3.25,3.71,6.97-.31,6.97-.31l14.74-13.34-1.71-1.71-11.63,10.08-8.83-7.44v-44.35c0-3.26,3.72-1.55,3.72-1.55ZM625.89,237.83h-15.97v-29.31l1.7-1.55s6.04,5.43,13.34,5.43,11.94-8.21,11.94-8.21c-10.7,4.96-20.62-9.46-20.62-9.46l-19.22,17.98v86.21l-12.56,12.09,19.85-.31,12.09-12.09h-6.2v-45.44c6.05-.46,15.66-15.34,15.66-15.34ZM934.61,242.01c-.47-4.34-6.66-4.18-6.66-4.18-11.47,0-15.35,6.81-15.35,6.81-2.64-7.59-9.61-7.28-9.61-7.28-9.15,0-15.04,6.82-15.04,6.82-1.7-5.89-9.46-6.51-9.46-6.51-13.03,0-18.61,14.57-18.61,14.57,2.95-3.72,10.08-4.34,10.08-4.34,3.56-1.24,4.34,3.41,4.34,3.41v46.67l-12.44,11.79h15.85l12.56-11.79h-3.88v-43.57c0-3.72,4.5-6.21,7.14-6.67,2.64-.46,3.45,3.72,3.45,3.72v46.44l-12.03,12.02h16.6l12.09-11.79h-2.75v-42.17c0-3.26.46-4.96,5.43-7.91,4.96-2.95,6.65,2.95,6.65,2.95v48.08l-10.99,11h17.52l11.01-11.94h-5.89v-56.13ZM1096.95,241.39c0-12.41-13.8-3.88-13.8-3.88l-11.94,9s1.55-11.63-8.38-10.7c-9.92.93-17.67,14.73-17.67,14.73,12.24-10.23,11.91-1.24,11.91-1.24v48.97l-11.95,11.96h18.76l12.56-11.94h-6.02v-44.97s1.86-1.39,7.45-5.58c5.58-4.19,6.51,2.95,6.51,2.95v47.6l-12.3,11.94h18.31l11.48-11.79h-4.93v-57.06ZM1122.38,320.32l29.93-25.73v-58.31l-13.18,10.7v53.18l-2.02,2.8-9.46-8.23v-51.63s.15-7.75-10.08-7.75-15.35,14.58-15.35,14.58c13.8-10.7,13.95,0,13.95,0v46.52l12.72,13.03-17.84,15.66s10.7,14.11,24.35,14.11,19.23-17.52,19.23-17.52c-16.28,16.75-32.25-1.39-32.25-1.39ZM151.73,302.96c-7.91-.63-9.3-6.21-9.3-6.21v-7.29l17.83-18.13s8.99-8.07,2.63-18.77c-6.36-10.7-14.26-13.02-14.26-13.02l-19.85,17.37v43.58s8.68,14.42,17.83,13.94c9.14-.46,18.45-17.67,18.45-17.67,0,0-5.43,6.82-13.34,6.21ZM142.74,253.02l2.95-2.01s8.68,4.19,8.68,15.19-11.63,19.38-11.63,19.38v-32.56ZM333.88,298.85v-36.28s2.21-5.13,10.24-5.24l-23.96-18.26-20.58,16.51v42.21s.12,2.09,1.98,3.84l10.58,10.58,3.02-2.79s3.37-2.21,5.93.7c2.56,2.9,6.28,4.65,1.86,9.3,0,0,4.77-4.19,9.42-.35,4.65,3.84,4.54,9.19.7,14.65-3.84,5.46-11.63,13.36-23.61,3.72-11.98-9.65-32.33-1.87-38.5,8.49,0,0,16.75-8.03,26.75-.58,10,7.44,28.03,4.3,36.98-7.79,8.96-12.1,11.4-24.54,0-26.28l-6.74-7.56s.7-4.07,5.93-4.87ZM322.14,302.21l-3.2,2.27s-2.27-2.27-4.71-4.71c-2.44-2.45-2.09-4.78-2.09-4.78v-44.53c1.97-1.98,3.43-.64,3.43-.64l6.57,6.57v45.82ZM500.3,299.7v-46.67l-16.28-14.27-16.13,14.42,1.4,1.25,5.89-5.12c2.17-2.79,5.27,0,5.27,0l7.6,6.82s.31,4.03,0,6.36c-.31,2.32-3.1,3.88-3.1,3.88l-19.07,9.91v23.58l13.33,11.63,6.82-5.43s-.31,6.66,11.63,5.58c11.94-1.08,13.49-12.4,13.49-12.4-11.16,9.92-10.86.46-10.86.46ZM488.05,301.25c-.15,3.25-2.95,1.08-2.95,1.08l-7.29-6.51v-20.31l9.92-5.74s.46,28.22.31,31.48ZM786.22,213.79s3.87,10.7,16.59,10.7,17.52-17.99,17.52-17.99c-14.88,10.7-22.79,3.1-29.61-7.6-6.82-10.7-13.49-8.52-13.49-8.52-10.55,0-41.4,18.14-41.4,62.64s33.49,57.53,33.49,57.53c1.71.62,2.64,3.72,2.64,3.72.77,13.64-9.31,21.56-9.31,21.56,14.27-3.1,15.98-13.81,18.92-19.23,2.95-5.43,8.22-6.82,8.22-6.82,16.44-5.89,18.61-23.1,18.61-23.1-9.46,13.03-24.19,11.47-24.19,11.47v-83.26l2.02-1.09ZM761.41,285.43s-16.59-14.12-16.59-43.58,13.79-35.51,13.79-35.51c0,0,2.8-1.4,2.8,2.17v76.91ZM772.11,296.44s-3.56-2.18-8.07-7.6v-84.19s5.74-5.27,8.07-.94v92.73ZM965.93,251.16v-8.68s-11.47-17.21-24.81,10.08c0,0,11.93-10.39,11.93-1.55v86.52s11.63-10.23,13.03-16.28v-14.57s.78-2.79,3.88-.32c3.1,2.49,7.44,5.58,7.44,5.58l11.63-12.09v-48.69l-11.47-12.56-11.63,12.56ZM977.4,297.37l-6.2,5.9-5.59-3.73v-42.64l7.6-7.59,4.34,4.96-.15,43.1ZM1033.84,300.78v-47.29l-16.28-13.8-16.28,13.96,1.55,1.7,8.37-7.28,10.7,8.37-.15,8.69-22.64,11.31v23.26l13.33,11.62,4.42-4.41s2.4-2.24,4.26.22l5.89,4.96s1.55,2.8,6.2-.3c4.65-3.1,8.68-6.21,13.64-13.8,0,0-11.47,9.77-13.02,2.79ZM1018.8,302.33c-3.09-2.79-6.82-6.04-6.82-6.04v-22.01l9.77-4.97v30.69s.15,5.13-2.95,2.33ZM451.92,204.34l-11.94,12.87-.15-11.78h-2.64v14.26l-6.28,5.43v-15.82s-.93-12.09-11.4-12.09-20.47,16.51-20.47,16.51c0,0,16.05-12.32,18.14,2.09v27.91s-16.51-.46-21.17,14.42c0,0,21.05-13.02,21.05,2.79v43.03s-19.89-3.96-30.12,9.99c-10.23,13.95-6.98,23.73-4.19,31.41l8.14-8.37s-13.26-9.54-.23-22.79c13.02-13.26,38.84,10.93,38.84,10.93l14.42-12.1-2.56-1.97v-26.86s20.78-5.89,23.57-36.44c2.79-30.54-13.02-43.41-13.02-43.41ZM430.83,229.3l6.24-5.43-.12,43.57-6.05-3.96-.08-34.19ZM437.42,309.54l-6.28-1.98v-26.04c2.79-.82,6.28,1.15,6.28,1.15v26.87ZM452.38,271.16c-3.72,6.52-11.94-1.86-11.94-1.86v-47.45l3.25-3.25s6.05,2.63,10.39,19.69c4.34,17.06,2.61,25.32-1.7,32.87ZM817.69,249.14l-.15,49,20.15,14.26c3.72-5.43,17.83-13.95,17.83-13.95v-45.12l-16.59-13.8c-8.52,9.46-21.25,9.61-21.25,9.61ZM842.43,301.63l-1.86,1.56-10.85-8.37v-45.12l2.94-.77c.62,0,9.77,7.44,9.77,7.44v45.28Z"/><path d="M121.64,317.69c-3.95-4.64-8.7-15.46-12.6-23.17-2.31-4.58-5.16-8.84-8.45-12.69,16.44-7.94,40.94-47.38-.16-72.19l-.02-.03h0s-.01,0-.02,0l-.03.04-16.38,11.17v-14.26h-4.42v17.27l-6.12,4.17v-21.02c0-6.59-4.56-9.46-9.4-9.85-12.29-1-18.4,13.92-18.58,14.37,13.06-5,14.63,3.18,14.78,6.21v25.46c-10.91.37-14.79,11.03-14.79,11.03,13.07-5.01,14.64,3.18,14.79,6.21v43.93c-9.44-1.02-19.64.12-27.78,6.6-17.79,14.14-10.75,28.9-8.15,33.11l9.34-6.42s-15.8-11.67.34-23.66c14.11-10.48,37.69,10.14,37.69,10.14l16.56-11.07s-1.58-.85-4.26-2.03v-29.31c1.05.78,2.03,1.65,2.93,2.66,8.86,9.88,10.31,24.33,17,35.8,2.67,4.58,6.66,9,11.92,9.7,7.2.96,11.25-1.55,15.5-6.14-3.17-.82-5.74-1.38-9.68-6.03ZM79.55,309.19c-1.83-.7-3.89-1.41-6.12-2.09v-29.68c2.12.38,4.18.95,6.12,1.78v29.99ZM79.55,265.59c-1.99-.95-4.03-1.81-6.12-2.55v-29.68l6.12-4.17v36.4ZM94.52,275.62c-3.25-2.91-6.78-5.49-10.55-7.68v-41.77l10.44-7.11c28.39,17.44,12.56,50.67.11,56.56Z"/><path d="M965.37,360.29c0-2.56-1.64-4.09-3.97-4.09-1.99,0-3.78,1.79-3.78,3.86s1.34,3.13,4.09,4.01c6.11,1.95,8.36,4.24,8.36,9.12s-3.67,8.55-8.67,8.55-8.63-3.59-8.71-8.9h4.12c.04,3.05,1.83,5.11,4.58,5.11s4.54-1.98,4.54-4.77c0-2.06-.92-3.36-3.93-4.39-6.99-2.37-8.51-4.66-8.51-8.67,0-4.31,3.55-7.71,7.9-7.71,4.66,0,8.02,2.94,8.09,7.86h-4.12Z"/><path d="M974.46,381.21v-28.25h4.12v28.25h-4.12Z"/><path d="M1002.6,381.21l-13.97-21.84h-.08v21.84h-4.12v-28.25h4.51l13.74,21.49h.08v-21.49h4.12v28.25h-4.28Z"/><path d="M1037.82,374.22c-2.86,4.92-7.41,7.52-13.06,7.52-7.83,0-14.28-7.02-14.28-14.55,0-8.51,6.72-14.77,14.32-14.77,5.34,0,10.34,2.44,13.21,7.75h-4.96c-2.14-2.48-4.62-3.97-7.94-3.97-5.92,0-10.5,5-10.5,10.61,0,5.92,4.47,11.15,10.27,11.15,2.94,0,5.57-1.14,7.86-3.74h5.08Z"/><path d="M1042.15,381.21v-28.25h15.23v3.78h-11.11v8.32h11.11v3.78h-11.11v8.59h11.11v3.78h-15.23Z"/><path d="M1080.98,381.21v-22.29l-4.16,1.17v-4.79l8.13-2.33v28.25h-3.97Z"/><path d="M1097.81,381.21l5.99-9.28c-1.07.15-1.22.15-1.68.15-5.19,0-9.09-4.35-9.09-9.54,0-5.65,4.31-10.12,9.7-10.12,6.22,0,9.81,5.23,9.81,9.62,0,2.18-.61,4.28-2.41,7.1l-7.64,12.06h-4.7ZM1108.58,362.43c0-3.44-2.41-6.37-5.84-6.37-3.21,0-5.73,2.86-5.73,6.11s2.48,6.3,5.73,6.3,5.84-2.82,5.84-6.03Z"/><path d="M1123.35,381.21v-22.29l-4.16,1.17v-4.79l8.13-2.33v28.25h-3.97Z"/><path d="M1142,367.85v-3.97h1.3c2.21,0,4.2-1.22,4.2-3.93,0-2.14-1.64-3.89-3.78-3.89s-3.51,1.49-3.78,3.97h-3.97c0-1.11.46-3.13,1.57-4.58,1.34-1.76,3.74-3.02,6.34-3.02,4.39,0,7.6,3.24,7.6,7.83,0,2.44-.76,3.82-2.6,5.5,2.44,1.57,3.82,4.09,3.82,7.02,0,5.23-3.78,8.97-9.16,8.97-4.96,0-9.05-3.82-9.12-8.86h3.97c.19,3.24,2.33,5.23,5.27,5.23s5.08-2.41,5.08-5.19c0-2.56-1.83-5.08-5.42-5.08h-1.3Z"/></svg>
